HIERARCHY
ROOT Hips
{
  OFFSET 265.287 66.7526 -254.649
  CHANNELS 6 Xposition Yposition Zposition Zrotation Xrotation Yrotation
  JOINT LeftUpLeg
  {
    OFFSET 8.64259 1.95398 -2.38835
    CHANNELS 3 Zrotation Xrotation Yrotation
    JOINT LeftLeg
    {
      OFFSET 43.7702 0 0
      CHANNELS 3 Zrotation Xrotation Yrotation
      JOINT LeftFoot
      {
        OFFSET 40.6238 0 0
        CHANNELS 3 Zrotation Xrotation Yrotation
        JOINT LeftToeBase
        {
          OFFSET 12.7242 0 0
          CHANNELS 3 Zrotation Xrotation Yrotation
          End Site
          {
            OFFSET 0 0 0
          }
        }
      }
    }
  }
  JOINT RightUpLeg
  {
    OFFSET -8.2249 1.95398 -2.59336
    CHANNELS 3 Zrotation Xrotation Yrotation
    JOINT RightLeg
    {
      OFFSET 43.5653 0 0
      CHANNELS 3 Zrotation Xrotation Yrotation
      JOINT RightFoot
      {
        OFFSET 40.6238 0 0
        CHANNELS 3 Zrotation Xrotation Yrotation
        JOINT RightToeBase
        {
          OFFSET 12.7242 0 0
          CHANNELS 3 Zrotation Xrotation Yrotation
          End Site
          {
            OFFSET 0 0 0
          }
        }
      }
    }
  }
  JOINT Spine
  {
    OFFSET 0.165834 0.87714 6.61349
    CHANNELS 3 Zrotation Xrotation Yrotation
    JOINT Spine1
    {
      OFFSET 7.38963 1.71661e-005 0
      CHANNELS 3 Zrotation Xrotation Yrotation
      JOINT Spine2
      {
        OFFSET 11.9445 1.14441e-005 0
        CHANNELS 3 Zrotation Xrotation Yrotation
        JOINT Spine3
        {
          OFFSET 14.7254 4.19617e-005 0
          CHANNELS 3 Zrotation Xrotation Yrotation
          JOINT Spine4
          {
            OFFSET 10.9679 0 0
            CHANNELS 3 Zrotation Xrotation Yrotation
            JOINT RightShoulder
            {
              OFFSET 2.46616 -1.6653 3.69651
              CHANNELS 3 Zrotation Xrotation Yrotation
              JOINT RightArm
              {
                OFFSET 13.0012 0 0
                CHANNELS 3 Zrotation Xrotation Yrotation
                JOINT RightForeArm
                {
                  OFFSET 28.7848 1.52588e-005 0
                  CHANNELS 3 Zrotation Xrotation Yrotation
                  JOINT RightHand
                  {
                    OFFSET 26.5688 1.52588e-005 0
                    CHANNELS 3 Zrotation Xrotation Yrotation
                    End Site
                    {
                      OFFSET 0 0 0
                    }
                  }
                }
              }
            }
            JOINT LeftShoulder
            {
              OFFSET 2.38034 -1.29275 -3.7523
              CHANNELS 3 Zrotation Xrotation Yrotation
              JOINT LeftArm
              {
                OFFSET 16.3182 6.10351e-005 0
                CHANNELS 3 Zrotation Xrotation Yrotation
                JOINT LeftForeArm
                {
                  OFFSET 27.0901 0 0
                  CHANNELS 3 Zrotation Xrotation Yrotation
                  JOINT LeftHand
                  {
                    OFFSET 24.5451 1.52588e-005 0
                    CHANNELS 3 Zrotation Xrotation Yrotation
                    End Site
                    {
                      OFFSET 0 0 0
                    }
                  }
                }
              }
            }
            JOINT Neck
            {
              OFFSET 5.0226 -0.0266342 0
              CHANNELS 3 Zrotation Xrotation Yrotation
              JOINT Head
              {
                OFFSET 6.69364 2.86102e-005 0
                CHANNELS 3 Zrotation Xrotation Yrotation
                End Site
                {
                  OFFSET 0 0 0
                }
              }
            }
          }
        }
      }
    }
  }
}
MOTION
Frames:	13
Frame Time:	0.0416667
-93.6423 100.809 -79.4234 -100.405 46.9677 -74.4567 -168.905 29.4708 99.722 -20.9324 12.6409 -0.473316 25.3376 -10.5073 -12.1528 36.1787 -2.09305 -3.81128 166.122 37.238 87.082 -18.7776 -1.96767 8.12828 32.6634 11.5711 31.513 51.6077 -3.09556 1.55294 -0.0062774 12.3999 -89.5773 2.07285 0.151077 0.825876 -9.59844 0.187275 0.818422 -32.1309 -0.104094 0.833099 -12.1183 -0.104104 0.833088 102.08 -28.5024 -82.3659 7.95009 -2.96558 44.3592 2.1789 -6.80345 -4.72298 0.965481 0.0135999 -2.29922 -82.8835 -39.1754 88.1114 -34.2436 1.99768 39.9251 -1.18574 8.15233 -2.58459 11.5034 0.279745 -1.76076 -13.7519 7.76639 -18.5713 13.8189 11.6714 22.9051 
-110.066 85.9141 -96.8772 -103.421 39.9013 -78.0817 -175.094 24.695 90.1284 -59.9363 25.5658 2.05366 67.0136 12.7721 28.9429 45.5291 -5.12588 -1.1848 166.108 38.0868 83.8083 -19.2551 -2.53228 5.9899 19.0748 15.309 34.9418 69.2352 -5.07113 3.43056 -1.00408 12.4315 -89.4296 2.0139 -1.78443 1.07322 -9.65646 -1.73548 1.15073 -32.1994 -2.02444 0.487177 -12.1868 -2.02445 0.487168 105.891 -47.1818 -76.1198 20.4797 6.82954 41.7487 -2.91655 15.3749 0.121711 3.64298 0.0796995 -2.45832 -83.723 -53.9922 88.3428 -18.2186 9.21903 11.2928 -3.44199 -3.15172 1.13653 14.2206 0.0182414 -3.72382 -12.5536 7.70581 -16.9218 14.6988 11.7076 21.7298 
-122.479 77.2905 -111.656 -101.528 33.5737 -80.2658 175.429 32.6567 94.0435 -94.4861 25.3169 1.92886 61.008 4.35976 18.9682 59.7314 -8.94207 3.41354 160.64 47.1092 89.6698 -57.9727 -18.183 8.21148 63.2793 -1.72909 -2.95397 11.3798 1.97618 2.26242 -1.04238 12.3965 -90.0603 2.07793 -2.10461 -0.162857 -9.59131 -2.10973 -0.0700291 -32.1386 -1.95834 -0.788091 -12.126 -1.95833 -0.788086 105.926 -57.3961 -76.8102 30.4037 -5.03524 9.14166 4.08446 19.3359 -9.41318 7.34278 -0.207235 -7.67121 -87.3801 -56.412 83.4428 -9.25233 5.13512 -24.769 -0.316301 -8.30676 -16.5464 16.9254 -0.233346 -5.20984 -4.84734 4.98615 -10.9984 12.5549 8.15971 15.2487 
-133.514 72.8227 -120.492 -109.515 42.281 -70.8619 168.235 45.0806 100.543 -104.987 19.8555 1.3445 57.3748 1.84975 16.9016 51.1086 -6.52767 3.51698 162.971 50.1584 94.2527 -82.9303 -26.0811 1.34384 49.0762 7.06977 6.41917 45.0721 -2.30852 1.81309 -0.235131 13.2029 -90.2189 0.466295 -0.550864 -0.448789 -11.2046 -0.570084 -0.424113 -33.7398 -0.390524 -0.593607 -13.7271 -0.390525 -0.593607 98.4517 -51.4453 -87.8167 11.8406 -9.86641 -26.7379 15.746 23.1224 -36.9288 -0.645957 -0.0540017 -10.7273 -90.8633 -50.8767 77.4118 -7.82163 0.909342 -41.0194 2.91824 2.80887 -10.7352 36.9223 0.518078 -2.49705 1.21946 4.52855 -8.51038 6.85926 7.59851 20.1885 
-143.917 72.5396 -129.518 -109.456 50.0849 -72.96 166.932 51.9229 99.2625 -72.1434 24.7934 4.57544 52.9734 -0.547147 13.6115 48.8588 -5.76785 6.13242 166.408 45.1761 90.9495 -92.645 -19.4716 -1.19187 69.248 -6.07731 2.95244 46.8026 -2.43017 4.0396 0.00635129 12.7174 -89.6502 1.44682 0.148324 0.670746 -10.2241 0.177705 0.663555 -32.7593 -0.0601361 0.68431 -12.7466 -0.0601378 0.684301 100.573 -46.7658 -84.7612 21.9641 -0.514659 -38.7164 14.5679 17.4921 -51.5369 -4.27875 0.133854 -10.1593 -92.4991 -54.8022 75.9212 0.37102 2.97171 -34.2706 -0.587018 7.09471 -3.51099 25.8169 0.65209 -1.50027 0.291009 4.61797 -10.3155 5.80393 7.8395 22.1047 
-155.497 71.3716 -140.109 -110.97 55.5162 -72.5947 172.258 53.6331 98.2602 -66.2242 25.0578 4.11088 51.4111 -1.97934 11.4946 41.1915 -3.75587 3.66049 175.383 39.2338 84.7273 -100.515 -17.7088 -3.40329 69.323 -5.41116 6.56619 60.2846 -2.92506 9.72361 -0.136924 12.2885 -89.1081 2.292 0.0729879 1.74421 -9.38011 0.149663 1.73931 -31.9062 -0.454511 1.68556 -11.8936 -0.454528 1.68554 100.44 -50.9235 -84.8216 18.9128 -6.04471 -32.0029 4.77374 7.42866 -51.9238 -2.38147 0.0971071 -11.6557 -92.1198 -59.1788 77.4121 -1.13688 4.17642 -23.6005 -1.64588 -3.83238 0.173575 22.0894 0.674415 -0.820842 8.18074 7.0975 -15.0952 -2.81 10.298 27.6977 
-165.196 72.2074 -149.309 -107.197 53.7553 -76.0841 175.381 53.5443 93.3046 -78.6264 28.452 2.42192 57.4909 2.02808 22.0566 46.9781 -5.50953 1.67031 -179.849 34.6085 82.6536 -103.782 -18.3978 -4.14265 57.5848 1.39096 10.0815 53.241 -3.00525 5.06847 -0.462277 12.0598 -88.9611 2.75433 -0.51541 2.02308 -8.91812 -0.425901 2.04378 -31.4439 -1.09953 1.77477 -11.4312 -1.09952 1.77478 100.03 -57.1959 -85.2221 21.5822 -3.62121 -24.0638 0.269728 1.25152 -34.9592 -11.6015 0.184258 -7.29253 -92.239 -58.3558 77.0781 -0.994175 2.8593 -26.7321 -0.953716 5.51721 -0.00147166 18.8765 0.59613 -0.71064 12.5196 6.45964 -17.0391 -3.41957 10.5621 28.3331 
-171.083 75.9807 -156.132 -99.4631 49.1986 -82.2095 174.77 52.1698 92.0192 -79.8884 31.5845 2.53349 56.4565 0.710624 18.24 49.6561 -6.20695 2.64683 175.46 41.3174 88.6111 -103.164 -18.3667 -3.54944 43.3758 8.00263 9.28281 23.4884 1.55801 -5.02986 -0.312136 11.8049 -89.4284 3.26384 -0.39651 1.11478 -8.40756 -0.34706 1.13115 -30.9402 -0.713212 0.944103 -10.9275 -0.713206 0.944105 100.087 -58.1537 -85.1075 24.1039 -2.13168 -20.0682 1.69009 5.9051 -13.137 -8.28351 -0.135266 -3.56594 -92.0258 -58.0749 77.3093 2.88142 2.19111 -35.395 2.13371 8.26593 -11.2829 16.6354 0.283626 -2.32507 13.983 4.20793 -15.7343 -4.06837 8.08397 27.6278 
-176.643 81.1987 -162.259 -94.6308 44.9347 -85.2296 175.237 45.7234 90.8702 -75.1213 33.3798 3.12891 58.5423 1.94787 18.8384 47.2256 -5.70767 -0.398129 172.257 45.6111 92.2954 -91.3777 -15.5646 -2.29254 53.1496 4.81773 16.9939 38.521 -1.52608 2.62425 -0.200871 11.315 -89.8408 4.24566 -0.337015 0.317293 -7.42527 -0.32271 0.331804 -29.9608 -0.416801 0.201334 -9.94818 -0.416792 0.201334 100.025 -59.4282 -85.1529 22.0774 -0.466086 -17.1239 1.03208 -13.2588 -1.90056 0.208163 -0.00874898 -2.67784 -90.0639 -54.7406 79.3649 2.71753 2.17186 -40.1201 11.1931 10.6594 -31.5934 12.12 -0.421713 -6.84851 9.55703 3.13898 -15.317 -0.288835 7.2479 26.4775 
-181.743 87.0119 -168.129 -93.2205 42.5243 -85.2188 175.795 36.266 91.1977 -66.9233 33.0395 4.33039 57.3082 1.04971 16.3676 46.6721 -5.61113 -1.6801 175.389 44.2275 91.5214 -70.1335 -11.4989 -1.01616 57.5514 3.35618 15.9233 41.4227 -1.83978 -2.32432 -0.221692 10.6467 -90.2498 5.57934 -0.547113 -0.475353 -6.09155 -0.567508 -0.450821 -28.6266 -0.378978 -0.617812 -8.61392 -0.378952 -0.617813 100.511 -59.5621 -84.4719 20.8876 0.0060432 -11.7927 0.750037 -17.02 -3.09158 1.19215 0.0151231 -2.43019 -89.3721 -55.0676 80.4083 6.01589 3.07545 -40.8631 14.97 7.51497 -44.4146 12.7035 -0.362995 -6.43296 9.30633 2.86917 -13.7767 -4.1884 5.70328 25.0626 
-187.239 92.1371 -174.324 -96.0198 40.2918 -84.5308 177.856 22.5577 89.5482 -55.9483 33.7279 5.11139 54.5876 -0.545552 14.545 48.4172 -6.17758 -1.71575 179.215 33.5523 87.8577 -41.0978 -10.7582 -1.50376 58.391 4.03753 17.8311 46.1461 -2.64846 -3.57259 -0.357415 10.2637 -90.2673 6.34435 -0.827142 -0.497541 -5.32642 -0.848246 -0.460659 -27.8622 -0.639359 -0.723127 -7.84955 -0.639393 -0.723139 100.368 -57.6689 -84.7259 22.189 -0.724322 -8.75425 0.446607 -15.7581 -5.55167 -1.87737 -0.0648675 -1.68839 -88.8504 -53.2007 80.8152 6.87689 3.49349 -42.5473 16.4691 8.00052 -46.4458 13.8201 -0.399753 -6.54334 7.71272 2.39341 -12.0547 -8.02735 3.96765 21.9052 
-193.561 94.808 -181.042 -96.1098 35.977 -84.2719 178.403 11.5378 90.0175 -47.8788 33.6955 6.67666 55.5837 0.0578613 12.9525 48.9004 -6.32038 -1.5423 178.657 22.3693 87.2535 -20.6515 -6.74747 -1.64135 56.8375 5.61578 18.3187 40.6551 -1.67291 -3.77618 -0.54243 9.47261 -90.4306 7.9242 -1.27068 -0.788961 -3.74634 -1.30416 -0.732276 -26.2829 -0.974827 -1.13438 -6.27026 -0.974812 -1.13438 100.108 -56.302 -85.1415 22.4894 -1.53301 -6.11067 0.374725 -15.12 -7.83449 -5.11288 -0.200944 -0.69405 -88.4659 -51.364 81.0452 7.11358 6.09944 -44.1117 16.6627 11.8172 -42.6976 11.6931 -0.326542 -6.29371 1.9118 2.00432 -10.3317 -9.71432 2.58021 18.6266 
-199.618 95.051 -188.396 -96.7656 35.818 -84.4466 178.97 3.78084 91.4407 -45.0116 33.537 7.75709 55.1345 -0.35117 9.67032 51.1275 -7.14831 -2.57722 178.386 15.5946 88.3488 -17.2294 -8.42273 -1.957 51.7917 7.48803 17.7384 40.1532 -1.64654 -1.10794 -0.477946 8.52976 -90.3774 9.81208 -1.12369 -0.649982 -1.85851 -1.15121 -0.599897 -24.395 -0.876411 -0.957652 -4.38233 -0.876406 -0.957654 100.594 -56.4882 -84.4347 20.9451 -2.91366 -4.86203 0.762753 -15.1491 -10.0676 -6.98455 -0.402919 1.60194 -87.467 -51.7726 82.5844 5.74496 9.80029 -40.7741 14.3793 13.6 -37.9349 10.0517 -0.26665 -6.01688 -1.58693 1.77028 -7.90038 -12.5253 1.55583 14.9433 
